<svg version="1.1" id="Layer_1" xmlns="http://www.w3.org/2000/svg" xmlns:xlink="http://www.w3.org/1999/xlink" x="0px" y="0px"
	 width="100%" viewBox="0 0 512 512" enable-background="new 0 0 512 512" xml:space="preserve">
<path fill="#000000" opacity="1.000000" stroke="none" 
	d="
M425.000000,513.000000 
	C283.747833,513.000000 142.495651,513.000000 1.000000,513.000000 
	C1.000000,400.645905 1.000000,288.291595 1.263670,175.329865 
	C4.477174,171.208130 8.484804,170.614975 12.734039,170.617020 
	C34.695904,170.627640 56.657784,170.627960 78.619652,170.617630 
	C85.514046,170.614395 85.618675,170.511444 85.619614,163.619659 
	C85.626038,116.201981 85.802750,68.783012 85.465630,21.367727 
	C85.400589,12.219656 88.322327,5.639386 96.000000,1.000000 
	C168.687561,1.000000 241.375122,1.000000 314.784271,1.214911 
	C323.512451,5.772213 326.888367,12.536811 326.425385,21.560816 
	C326.152557,26.878323 326.491791,32.224609 326.343140,37.552021 
	C326.242584,41.155064 327.654510,42.721310 331.329834,42.647148 
	C337.824860,42.516090 344.325592,42.568367 350.822479,42.652946 
	C361.955322,42.797871 369.109924,51.990788 368.466156,60.824768 
	C367.995117,67.288345 368.502350,73.817352 368.326202,80.310493 
	C368.222046,84.150818 369.669891,85.774536 373.581696,85.664482 
	C379.741455,85.491188 385.909760,85.617622 392.074463,85.626106 
	C404.627472,85.643387 411.360748,92.416817 411.371124,105.084236 
	C411.387543,125.077843 411.448730,145.071930 411.320465,165.064697 
	C411.294312,169.141296 412.714905,170.900330 416.853149,170.661987 
	C420.340179,170.461151 423.849762,170.568542 427.347076,170.644318 
	C438.265045,170.880905 445.349304,178.075867 445.366119,188.993607 
	C445.396912,208.987167 445.373199,228.980820 445.379028,248.974426 
	C445.381226,256.610291 445.389740,256.619873 453.250488,256.624817 
	C466.579559,256.633209 479.931122,257.099396 493.229980,256.465820 
	C502.346405,256.031433 508.591034,259.391907 513.000000,267.000000 
	C513.000000,271.356903 513.000000,275.713806 512.886475,280.867401 
	C512.326172,282.733215 511.828705,283.784241 511.440094,284.874054 
	C501.025116,314.084167 490.641144,343.305359 480.210480,372.509827 
	C467.045105,409.371246 454.001617,446.277588 440.557281,483.037140 
	C436.688049,493.616394 434.987976,505.519592 425.000000,513.000000 
M215.499817,494.623535 
	C279.817596,494.622101 344.135529,494.556396 408.452820,494.734161 
	C413.949097,494.749359 416.681854,493.220947 418.529541,487.817352 
	C426.755981,463.758881 435.411438,439.846313 443.992523,415.909973 
	C459.748810,371.959015 475.592682,328.039429 491.325104,284.079926 
	C494.416565,275.441742 494.260132,275.380951 485.174255,275.380920 
	C360.204254,275.380280 235.234238,275.381897 110.264236,275.379669 
	C101.492249,275.379517 101.409889,275.338074 98.513596,283.468262 
	C87.646774,313.972595 76.866699,344.507812 66.001106,375.012573 
	C52.685223,412.396393 39.305981,449.757629 25.978651,487.137390 
	C23.320200,494.593628 23.371122,494.622040 31.043779,494.622375 
	C92.195786,494.625061 153.347778,494.623596 215.499817,494.623535 
M189.376526,213.499817 
	C189.377365,225.831787 189.515121,238.166061 189.306366,250.494476 
	C189.231094,254.939590 190.561752,256.789795 195.271317,256.705933 
	C208.432556,256.471497 221.600662,256.635651 234.765915,256.592499 
	C236.003113,256.588440 237.479034,257.128021 238.686447,255.213272 
	C223.159790,239.710358 213.979828,221.159698 213.612106,198.739990 
	C213.243713,176.280579 220.821701,156.687454 236.919693,141.331390 
	C264.397980,115.119514 305.004547,111.665092 336.743713,134.166870 
	C356.713318,148.324524 367.315063,168.501343 368.442719,193.453903 
	C369.559113,218.157196 360.476105,238.570053 342.176483,256.315430 
	C345.479919,256.465118 347.285522,256.614868 349.091370,256.617828 
	C361.423431,256.637939 373.755615,256.643616 386.087708,256.619568 
	C392.347992,256.607361 392.623077,256.343445 392.624756,250.122345 
	C392.637115,203.793549 392.635590,157.464752 392.626648,111.135956 
	C392.625397,104.648590 392.378174,104.399544 385.837555,104.398911 
	C322.677094,104.392822 259.516602,104.396225 196.356140,104.405045 
	C189.641266,104.405975 189.383438,104.671417 189.381775,111.509682 
	C189.373535,145.173050 189.377289,178.836426 189.376526,213.499817 
M104.370529,59.499847 
	C104.370331,118.497185 104.370018,177.494522 104.370193,236.491867 
	C104.370209,240.825027 104.367203,245.158188 104.377190,249.491333 
	C104.393364,256.516815 104.470192,256.595673 111.261841,256.621063 
	C114.261681,256.632263 117.261581,256.629364 120.261459,256.627258 
	C128.621109,256.621338 128.627441,256.620178 128.627686,248.428848 
	C128.629562,185.931412 128.625977,123.433990 128.639099,60.936562 
	C128.639618,58.460239 128.579819,56.037651 129.600845,53.594608 
	C133.052719,45.335167 139.718643,42.635902 147.966385,42.627808 
	C180.298355,42.596088 212.630371,42.618397 244.962372,42.619762 
	C263.628265,42.620548 282.294189,42.628941 300.960083,42.614510 
	C307.442444,42.609497 307.598480,42.426090 307.621155,35.770969 
	C307.630829,32.937790 307.625488,30.104538 307.620819,27.271328 
	C307.607788,19.398478 307.606506,19.392893 299.931213,19.393991 
	C280.932007,19.396711 261.932800,19.410650 242.933578,19.410004 
	C199.102066,19.408512 155.270538,19.395334 111.439026,19.402061 
	C104.772270,19.403084 104.386597,19.815104 104.378464,26.501150 
	C104.365494,37.167362 104.372292,47.833603 104.370529,59.499847 
M170.632614,208.500183 
	C170.633545,173.842148 170.607376,139.184097 170.650528,104.526108 
	C170.665100,92.825233 177.968246,85.629921 189.665161,85.627670 
	C239.319748,85.618111 288.974335,85.622292 338.628937,85.620567 
	C340.795044,85.620491 342.962524,85.560814 345.126923,85.619255 
	C348.310089,85.705193 349.658142,84.135521 349.619049,81.038216 
	C349.566467,76.873329 349.626984,72.707130 349.621185,68.541519 
	C349.611237,61.397518 349.605438,61.377476 342.290741,61.376907 
	C279.805939,61.372044 217.321136,61.372494 154.836334,61.379002 
	C147.394684,61.379780 147.379639,61.401051 147.378860,68.978806 
	C147.373764,118.800018 147.375488,168.621231 147.375443,218.442444 
	C147.375443,229.273148 147.523361,240.106750 147.307617,250.933136 
	C147.219513,255.353867 148.928970,256.937531 153.205322,256.673828 
	C157.023148,256.438385 160.882492,256.409515 164.695511,256.681702 
	C169.391724,257.016998 170.754761,254.936325 170.693207,250.489258 
	C170.504181,236.828568 170.629486,223.163544 170.632614,208.500183 
M19.375860,331.499756 
	C19.375860,369.245270 19.375860,406.990784 19.375860,444.736267 
	C19.786602,444.767609 20.197344,444.798920 20.608086,444.830231 
	C40.364235,389.457733 60.120380,334.085266 79.967064,278.459015 
	C77.504921,278.459015 75.984093,278.257416 74.534454,278.493317 
	C67.672531,279.609985 60.811657,280.750458 53.985062,282.062714 
	C44.272369,283.929810 36.044701,279.695312 32.279697,270.569183 
	C30.829546,267.054108 29.795887,263.366150 28.323135,259.861755 
	C25.429298,252.975891 23.750288,245.583511 19.375967,239.169983 
	C19.375967,269.613220 19.375967,300.056488 19.375860,331.499756 
M273.131592,158.415024 
	C282.298096,153.253967 291.898315,152.274261 301.941193,155.383881 
	C324.340485,162.319489 333.158966,188.324356 319.830048,208.924606 
	C317.799011,212.063660 318.227448,213.636505 320.972046,215.303711 
	C323.605133,216.903183 325.255066,219.357681 327.171967,221.669586 
	C330.594604,225.797607 331.633423,231.105484 334.325226,235.674973 
	C352.016724,218.398773 357.391876,184.194519 335.074371,158.523407 
	C313.238831,133.406677 271.559875,129.649872 246.017120,160.222351 
	C226.785187,183.241333 228.568939,216.224075 247.842361,235.488342 
	C248.192688,235.167603 248.758133,234.904266 248.863388,234.516129 
	C251.069855,226.379532 255.634308,219.804794 262.206390,214.645081 
	C264.633209,212.739761 263.821869,211.001434 262.498779,209.102997 
	C251.590530,193.451401 255.152145,169.146866 273.131592,158.415024 
M63.052849,261.300598 
	C68.607483,260.386841 74.164474,259.487122 79.715904,258.554260 
	C83.259689,257.958801 85.761261,256.838654 85.709724,252.266983 
	C85.493782,233.110992 85.564468,213.950928 85.660843,194.792999 
	C85.679924,190.999695 84.302025,189.336914 80.408409,189.355682 
	C63.082985,189.439087 45.756462,189.447968 28.431355,189.332123 
	C24.209009,189.303909 23.567337,191.052811 24.868492,194.584717 
	C31.814064,213.437927 38.655228,232.329895 45.679707,251.153534 
	C47.062836,254.859894 46.978241,259.734070 50.154526,262.012451 
	C53.658623,264.525970 58.118279,261.355988 63.052849,261.300598 
M312.512207,234.041107 
	C310.023834,230.536636 306.556885,228.214340 302.753632,226.486954 
	C285.930695,218.846176 269.208984,227.457458 266.555328,243.631531 
	C265.842987,247.973343 266.818176,251.027008 271.420624,252.519669 
	C283.614594,256.474426 295.862640,257.080322 308.155945,253.273117 
	C315.652557,250.951431 317.680756,246.570221 315.000305,239.192551 
	C314.435516,237.638077 313.562195,236.195740 312.512207,234.041107 
M426.633118,229.500107 
	C426.633240,218.347443 426.648224,207.194748 426.627777,196.042130 
	C426.616058,189.646179 426.329498,189.393738 419.750671,189.377213 
	C419.417755,189.376373 419.084869,189.379456 418.751953,189.380325 
	C411.483948,189.399078 411.385071,189.477448 411.380402,196.547394 
	C411.368988,213.858994 411.373566,231.170609 411.376801,248.482208 
	C411.378326,256.662079 411.383575,256.662079 419.741455,256.625031 
	C426.361603,256.595642 426.597229,256.384155 426.620483,249.975647 
	C426.644073,243.483871 426.630188,236.991959 426.633118,229.500107 
M286.695129,203.794037 
	C291.485840,205.659470 295.843536,204.500977 299.905762,201.776474 
	C306.310852,197.480621 308.658081,190.046738 305.920197,183.015182 
	C303.560486,176.954880 295.605042,171.755173 289.827087,172.496658 
	C282.563416,173.428818 276.418732,179.361496 275.460541,186.367554 
	C274.411804,194.035675 278.222656,200.308823 286.695129,203.794037 
z"/>
<path fill="#000000" opacity="1.000000" stroke="none" 
	d="
M255.999786,403.404968 
	C243.002609,403.399414 230.500656,403.604828 218.009842,403.320404 
	C208.313385,403.099579 199.241730,401.012573 193.103500,392.323853 
	C189.516190,387.245941 188.125092,381.548309 187.655289,375.522858 
	C187.513229,373.700745 187.396622,371.824463 187.663635,370.031830 
	C188.731796,362.860535 186.471573,358.502686 179.395050,355.006500 
	C166.652451,348.710876 160.488617,333.875488 162.735092,318.987946 
	C164.772339,305.486877 175.398666,293.396362 189.217361,291.088623 
	C207.571442,288.023468 224.134598,294.665863 230.889587,314.903992 
	C236.469620,331.621918 227.555710,350.256073 210.572144,357.385468 
	C207.508469,358.671539 206.147079,360.585419 206.347092,363.869934 
	C206.498734,366.360016 206.356018,368.867096 206.375275,371.366333 
	C206.450470,381.123260 209.712402,384.472198 219.627029,384.590271 
	C229.623367,384.709351 239.622192,384.621918 249.619919,384.622803 
	C275.614044,384.625092 301.608154,384.640076 327.602264,384.621216 
	C338.423523,384.613342 341.604340,381.410522 341.622009,370.656647 
	C341.623932,369.490234 341.486542,368.304962 341.645630,367.160645 
	C342.406281,361.689148 340.502472,358.740326 335.014679,356.304321 
	C314.153656,347.044128 309.877533,318.079559 325.334503,301.079285 
	C338.801483,286.267731 368.625519,286.184143 380.589050,306.425385 
	C390.776917,323.662415 386.259979,348.578461 364.575928,357.385864 
	C361.488007,358.640076 360.148468,360.391876 360.316772,363.744202 
	C360.533722,368.065491 360.402466,372.406647 360.353149,376.738464 
	C360.200836,390.121582 351.037567,400.288666 337.890717,402.534607 
	C330.733521,403.757294 323.617218,403.313843 316.485687,403.358093 
	C296.491058,403.482147 276.495178,403.403534 255.999786,403.404968 
M187.611526,333.623474 
	C189.676941,326.488373 191.798553,324.556091 197.471161,324.643738 
	C203.483032,324.736572 204.396042,325.837952 207.130341,336.296051 
	C214.653564,331.564392 215.279984,322.340790 209.424652,315.013641 
	C204.553238,308.917725 194.658615,307.411255 188.359131,312.012604 
	C181.279663,317.183716 179.200638,326.401733 183.776596,333.042358 
	C184.506805,334.102051 185.213379,337.285553 187.611526,333.623474 
M342.977600,328.752991 
	C345.115295,325.520844 348.142792,324.413025 351.950104,324.620331 
	C359.096039,325.009308 359.407928,331.319153 361.382782,336.250153 
	C366.691925,331.200348 368.105591,324.606628 365.461884,319.106903 
	C362.040436,311.989288 355.251251,308.261353 347.998993,309.518097 
	C342.442902,310.480927 336.345917,316.712006 335.422668,322.371063 
	C334.368927,328.829834 336.419067,333.830353 341.071808,336.087280 
	C342.327606,334.025940 340.866028,331.374573 342.977600,328.752991 
z"/>
</svg>