<svg version="1.1" id="Layer_1" xmlns="http://www.w3.org/2000/svg" xmlns:xlink="http://www.w3.org/1999/xlink" x="0px" y="0px"
	 width="100%" viewBox="0 0 896 592" enable-background="new 0 0 896 592" xml:space="preserve">
<path fill="#000000" opacity="1.000000" stroke="none" 
	d="
M558.774536,530.922852 
	C519.389832,549.028259 478.249939,557.346985 435.535034,553.997192 
	C344.793793,546.881042 275.495422,503.976501 228.690094,425.727783 
	C210.961014,396.088470 200.285721,363.792908 196.581009,329.378479 
	C187.431519,244.385925 213.179428,171.591522 274.469055,112.060776 
	C312.836731,74.794189 359.222351,52.847973 412.124939,44.508118 
	C519.651184,27.557089 628.254761,82.304207 678.330994,178.820602 
	C693.208435,207.495239 703.015869,237.807892 706.064270,269.915588 
	C713.082031,343.830292 693.183533,409.619873 644.622192,466.232452 
	C620.848633,493.947510 592.196838,515.320557 558.774536,530.922852 
M630.615723,363.197113 
	C631.952820,351.968811 633.292114,340.740753 634.626587,329.512146 
	C637.216614,307.719788 639.813232,285.928223 642.386169,264.133850 
	C643.107544,258.022949 644.244690,251.909805 644.325134,245.786316 
	C644.450623,236.226639 637.203979,230.385834 625.988831,230.383224 
	C561.323608,230.368240 496.658356,230.376266 431.993103,230.376038 
	C402.160431,230.375931 372.327728,230.345169 342.495117,230.390732 
	C332.511963,230.405975 326.531952,235.712891 325.252533,245.436676 
	C324.775146,249.064896 324.303711,252.694138 323.867279,256.327423 
	C321.029785,279.950409 318.185608,303.572571 315.376678,327.198975 
	C312.155334,354.294250 309.138092,381.415253 305.694336,408.482056 
	C303.991058,421.869019 310.321411,429.639740 323.900116,429.641205 
	C417.731354,429.651337 511.562622,429.651520 605.393860,429.645905 
	C617.589172,429.645172 623.559509,423.693451 624.779907,411.629761 
	C626.386230,395.750641 628.592407,379.932220 630.615723,363.197113 
M420.500122,198.382446 
	C411.168030,198.379135 401.816956,198.015259 392.510834,198.505249 
	C386.758606,198.808136 383.170013,197.002548 380.659180,191.838196 
	C377.327148,184.984833 371.452148,182.272400 363.903870,182.326187 
	C345.573425,182.456848 327.241272,182.334900 308.910004,182.379944 
	C297.569611,182.407806 291.362427,188.677750 291.357971,200.094589 
	C291.338470,249.922653 291.349854,299.750732 291.350983,349.578796 
	C291.351074,352.390137 291.345123,355.203430 292.598297,358.491516 
	C295.090363,348.044067 295.730743,337.921234 296.946655,327.882202 
	C300.845673,295.690460 304.844391,263.510620 308.658447,231.308868 
	C310.142212,218.781876 315.604034,213.654678 328.267212,213.651474 
	C365.929901,213.641922 403.592590,213.646362 441.255280,213.646301 
	C495.082916,213.646225 548.910583,213.658020 602.738159,213.610550 
	C605.095703,213.608459 608.155151,214.613968 609.419495,211.674774 
	C610.617249,208.890396 608.763977,206.517670 607.096436,204.425552 
	C603.364197,199.743088 598.316528,198.311966 592.482056,198.319366 
	C535.488220,198.391571 478.494141,198.374344 420.500122,198.382446 
z"/>
</svg>